<svg id="Capa_1" fill="#01769F" height="512" viewBox="0 0 512.178 512.178" width="512" xmlns="http://www.w3.org/2000/svg"><g><g><path d="m176.344 347.329c10.102 0 19.854-4.233 26.756-11.616 2.827-3.023 2.667-7.767-.356-10.594s-7.766-2.666-10.594.356c-4.138 4.426-9.752 6.864-15.806 6.864-6.267 0-12.223-2.717-16.34-7.455-2.716-3.124-7.45-3.456-10.574-.741s-3.456 7.449-.741 10.574c6.965 8.015 17.046 12.612 27.655 12.612z"/><path d="m293.421 347.329c10.102 0 19.854-4.233 26.756-11.616 2.827-3.023 2.667-7.767-.356-10.594s-7.767-2.666-10.594.356c-4.138 4.426-9.752 6.864-15.806 6.864-6.268 0-12.224-2.717-16.34-7.454-2.715-3.126-7.449-3.459-10.573-.742-3.125 2.714-3.457 7.448-.742 10.573 6.964 8.015 17.044 12.613 27.655 12.613z"/><path d="m475.829 145.799c-6.887 0-13.026 2.487-18.442 4.68-.979.396-1.938.785-2.882 1.152v-16.496c0-7.695-6.261-13.956-13.957-13.956h-25.684c-1.071 0-1.701-.609-1.982-.972-.289-.373-.732-1.159-.453-2.236.766-2.952 1.979-5.924 3.264-9.069 2.385-5.843 5.089-12.465 5.089-20.059 0-19.075-15.518-34.593-34.593-34.593s-34.593 15.518-34.593 34.594c0 7.134 2.754 14.081 5.184 20.21 1.265 3.191 2.46 6.206 3.166 8.925.278 1.072-.163 1.856-.451 2.228-.281.363-.912.973-1.985.973h-25.685c-7.696 0-13.957 6.261-13.957 13.956v2.32c-6.132-3.968-12.544-7.551-19.19-10.709 2.876-9.752 2.908-20.262 2.302-27.952-.475-6.048-3.919-11.247-8.808-14.219 4.501-14.3 4.869-29.891.153-44.283 0-.001 0-.001 0-.001-8.024-24.477-30.725-40.293-57.835-40.292-27.07.001-49.744 15.817-57.764 40.293-4.716 14.392-4.355 29.986.146 44.286-4.885 2.973-8.326 8.169-8.802 14.213-.606 7.687-.575 18.191 2.299 27.942-21.126 10.039-39.931 24.323-54.705 41.835-22.542 26.72-34.957 60.197-34.957 94.265v36.078h-10.925c-19.799 0-35.907 16.107-35.907 35.906s16.108 35.907 35.907 35.907h11.436c.764 9.591 2.398 19.072 4.924 28.307.912 3.332 3.931 5.52 7.225 5.52.655 0 1.321-.087 1.982-.267 3.993-1.092 6.344-5.215 5.252-9.207-3.239-11.843-4.886-24.135-4.902-36.538v-46.117c62.827-7.644 97.581-44.389 134.292-83.223 1.504-1.591 3.014-3.187 4.532-4.791 1.519 1.603 3.028 3.2 4.532 4.791 36.711 38.834 71.466 75.581 134.295 83.223v45.939c0 76.548-62.277 138.826-138.827 138.826-50.735 0-97.415-27.664-121.824-72.197-1.989-3.629-6.544-4.96-10.175-2.971-3.63 1.99-4.96 6.546-2.971 10.175 27.041 49.335 78.759 79.983 134.97 79.983 80.653 0 147.002-62.398 153.319-141.454h11.425c19.799 0 35.906-16.108 35.906-35.907s-16.107-35.906-35.906-35.906h-10.927v-36.078c0-18.383-3.633-36.587-10.505-53.656 2.551-1.203 5.387-1.873 8.355-1.873 9.375 0 17.467 6.667 19.242 15.85 1.257 6.514 7.012 11.243 13.685 11.243h21.431c7.696 0 13.957-6.261 13.957-13.956v-16.497c.946.367 1.909.757 2.891 1.155 5.421 2.193 11.567 4.679 18.434 4.679 17.638 0 31.988-14.35 31.988-31.988 0-17.641-14.35-31.991-31.989-31.991zm-395.123 209.934h-10.924c-11.534 0-20.916-9.383-20.916-20.916 0-11.532 9.383-20.915 20.916-20.915h10.924zm307.635-41.832h10.927c11.533 0 20.915 9.383 20.915 20.915 0 11.534-9.383 20.916-20.915 20.916h-10.927zm-197.371-268.941c7.248-22.121 27.973-29.969 43.519-29.97 15.577 0 36.339 7.848 43.589 29.969 3.886 11.859 3.264 25.03-.913 36.963h-85.284c-4.176-11.932-4.796-25.103-.911-36.962zm-7.956 55.009c.138-1.743 1.534-3.057 3.25-3.057h96.522c1.716 0 3.112 1.313 3.25 3.055v.002c.596 7.574.516 18.353-3.254 26.689-.547 1.209-1.728 1.991-3.011 1.991h-90.493c-1.282 0-2.463-.781-3.01-1.99-3.771-8.339-3.851-19.117-3.254-26.69zm292.816 94.817c-3.951 0-8.255-1.741-12.813-3.586-3.208-1.297-6.525-2.639-10.157-3.566-3.23-.813-6.587-.107-9.213 1.938-2.626 2.047-4.133 5.13-4.133 8.459v21.374h-19.551c-3.481-15.754-17.539-27.093-33.772-27.093-16.241 0-30.301 11.34-33.781 27.093h-19.552v-10.4c0-4.14-3.355-7.495-7.495-7.495s-7.495 3.355-7.495 7.495v11.435c0 7.695 6.261 13.956 13.957 13.956h21.431c6.671 0 12.426-4.728 13.686-11.242.005-.027.014-.053.019-.08 4.193 12.838 6.391 26.248 6.391 39.759v34.489c-56.314-7.452-87.52-40.465-123.401-78.421-2.293-2.426-4.602-4.867-6.933-7.321-2.201-2.314-5.296-3.641-8.495-3.641-3.197.001-6.293 1.328-8.491 3.642-2.332 2.452-4.64 4.893-6.933 7.32-35.881 37.956-67.087 70.969-123.401 78.421v-34.489c0-30.535 11.16-60.579 31.424-84.599 13.678-16.213 31.192-29.377 50.886-38.524 3.164 2.489 7.111 3.929 11.271 3.929h90.493c4.159 0 8.104-1.439 11.267-3.926 9.522 4.422 18.516 9.804 26.83 15.997v20.155c0 4.14 3.355 7.495 7.495 7.495s7.495-3.355 7.495-7.495v-39.695h24.651c5.458 0 10.503-2.475 13.842-6.791 3.35-4.331 4.482-9.859 3.104-15.166-.939-3.617-2.364-7.21-3.742-10.686-2.029-5.119-4.128-10.412-4.128-14.684 0-10.81 8.794-19.604 19.603-19.604s19.603 8.794 19.603 19.603c0 4.652-1.931 9.384-3.977 14.393-1.415 3.465-2.877 7.048-3.895 10.973-1.377 5.31-.245 10.84 3.107 15.172 3.338 4.315 8.381 6.789 13.838 6.789h24.65v21.375c0 3.33 1.507 6.413 4.133 8.459 2.626 2.047 5.985 2.752 9.274 1.922 3.573-.911 6.887-2.254 10.092-3.552 4.551-1.843 8.849-3.584 12.815-3.584 9.373 0 16.999 7.626 16.999 16.999s-7.625 16.998-16.998 16.998z"/><path d="m504.594 34.974h-11.781v-11.781c0-4.14-3.355-7.495-7.495-7.495s-7.495 3.355-7.495 7.495v11.781h-11.781c-4.14 0-7.495 3.355-7.495 7.495s3.355 7.495 7.495 7.495h11.781v11.781c0 4.14 3.355 7.495 7.495 7.495s7.495-3.355 7.495-7.495v-11.781h11.781c4.14 0 7.495-3.355 7.495-7.495s-3.355-7.495-7.495-7.495z"/><path d="m46.135 416.356h-11.78v-11.781c0-4.14-3.355-7.495-7.495-7.495s-7.495 3.355-7.495 7.495v11.781h-11.781c-4.14 0-7.495 3.355-7.495 7.495s3.355 7.495 7.495 7.495h11.781v11.781c0 4.14 3.355 7.495 7.495 7.495s7.495-3.355 7.495-7.495v-11.781h11.781c4.14 0 7.495-3.355 7.495-7.495s-3.356-7.495-7.496-7.495z"/></g></g></svg>