<?xml version="1.0" encoding="iso-8859-1"?>
<!-- Generator: Adobe Illustrator 19.0.0, SVG Export Plug-In . SVG Version: 6.00 Build 0)  -->
<svg version="1.1" id="Capa_1" xmlns="http://www.w3.org/2000/svg" fill="#01769F" height="512pt" width="512pt" xmlns:xlink="http://www.w3.org/1999/xlink" x="0px" y="0px"
	 viewBox="0 0 512 512" style="enable-background:new 0 0 512 512;" xml:space="preserve">
<g>
	<g>
		<g>
			<path d="M462.787,149.4c-22.083-26.275-47.108-56.058-47.108-81.133c0.696-9.7,4.264-18.973,10.25-26.637
				c5.41-8.269,5.851-18.839,1.149-27.53S413.286-0.005,403.404,0H159.679C100.962,0,14.612,162.308,14.612,213.333
				c0.222,10.062,1.018,20.103,2.383,30.075c4.491,38.161,6.546,76.569,6.15,114.992c0.467,41.135-3.41,82.204-11.567,122.525
				c-1.661,7.596,0.222,15.534,5.117,21.575c4.844,6.023,12.163,9.518,19.892,9.5h37.758c14.132-0.015,25.585-11.468,25.6-25.6
				V273.067c-0.267-17.674-2.099-35.291-5.475-52.642c-1.632-7.963-2.655-16.039-3.058-24.158c0-25.171,0-51.2,85.333-51.2
				c29.7,0,51.2-20.387,51.2-34.133c-0.126-3.772-0.799-7.505-2-11.083c-0.727-2.364-0.386-4.929,0.933-7.021
				c1.257-2,3.334-3.341,5.675-3.662c23.948-2.924,48.069-4.205,72.192-3.833c64.175,0,119.042,98.496,119.467,110.933
				c0.643,9.235-2.746,18.296-9.292,24.842c-6.546,6.546-15.607,9.935-24.842,9.292h-204.8c-32.292,0-68.267,31.542-68.267,77.621
				c-0.004,8.715,5.865,16.338,14.292,18.562c8.608,2.396,17.75-1.307,22.267-9.017c14.208-23.866,33.492-35.967,57.308-35.967
				h110.933c27.875,0,68.267,17.975,68.267,25.6v1.992c0.02,3.709-1.957,7.143-5.175,8.987c-3.075,1.83-6.898,1.859-10,0.075
				c-26.881-13.993-56.942-20.744-87.225-19.588c-81.342,0-128,27.992-128,76.8c-0.391,17.99,2.591,35.895,8.792,52.787
				c-7.092-4.762-13.728-10.17-19.825-16.154c-2.09-2.091-5.114-2.95-7.992-2.271c-2.877,0.679-5.198,2.799-6.133,5.604
				c-0.575,1.717-13.917,42.442-4.925,77.263c2.916,11.353,13.145,19.294,24.867,19.304h201.483
				c59.65,0,93.867-21.771,93.867-59.733c0.541-16.609-4.405-32.935-14.075-46.45c-0.908-1.367-2.075-3.117-2.658-4.1
				c1.906-1.853,3.918-3.593,6.025-5.213c8.117-6.537,19.242-15.487,19.242-29.571c-0.074-8.876-3.535-17.39-9.675-23.8
				c10.449-5.315,17.356-15.708,18.208-27.4c-0.388-5.869-2.159-11.563-5.167-16.617c-1.675-2.757-2.817-5.805-3.367-8.983v-21.688
				c-0.034-4.108,2.191-7.902,5.792-9.879c9.812-5.085,18.684-11.808,26.233-19.879c6.554-6.849,10.344-15.879,10.642-25.354
				C501.012,194.879,483.296,173.804,462.787,149.4z M477.521,227.458c-6.212,6.534-13.481,11.975-21.5,16.096
				c-9.115,4.958-14.775,14.516-14.742,24.892v21.688c0.388,5.869,2.159,11.563,5.167,16.617c1.675,2.757,2.817,5.805,3.367,8.983
				c0,8.821-14.65,15.771-19.767,17.504c-3.252,1.101-5.53,4.041-5.785,7.466s1.564,6.669,4.618,8.239
				c6.869,3.561,11.517,10.305,12.4,17.992c0,5.912-6.842,11.417-12.875,16.275c-6.542,5.267-12.725,10.237-12.725,17.858
				c0.457,5.225,2.502,10.186,5.858,14.216c7.801,10.71,11.751,23.744,11.208,36.983c0,38.508-53.709,42.667-76.8,42.667H154.462
				c-3.939-0.01-7.372-2.686-8.342-6.504c-3.62-18.075-3.21-36.726,1.2-54.625c13.231,10.523,27.72,19.359,43.133,26.305
				c3.759,1.611,8.133,0.328,10.426-3.059c2.293-3.387,1.859-7.925-1.034-10.816c-15.325-15.329-23.1-39.138-23.1-70.767
				c0-37.962,40.433-59.733,110.933-59.733c27.322-1.146,54.472,4.835,78.783,17.354c8.376,4.817,18.696,4.758,27.016-0.154
				c8.5-4.874,13.721-13.944,13.667-23.742V307.2c0-26.108-60-42.667-85.333-42.667H210.879c-30.293,0.476-57.903,17.47-71.975,44.3
				c-0.593,1.128-1.911,1.668-3.125,1.279c-1.691-0.458-1.7-1.729-1.7-2.912c0-37.008,29.817-59.733,51.2-59.733h204.8
				c13.764,0.637,27.161-4.553,36.904-14.296s14.933-23.139,14.296-36.904c0-23.567-64.691-128-136.533-128
				c-24.931-0.342-49.857,0.997-74.608,4.008c-7.264,1.036-13.712,5.196-17.65,11.388c-4.005,6.295-5.053,14.029-2.867,21.163
				c0.665,1.915,1.091,3.905,1.267,5.925c-7.297,11.641-20.442,18.282-34.142,17.25c-85.642,0-102.4,25.029-102.4,68.267
				c0.376,9.088,1.479,18.131,3.3,27.042c3.223,16.397,4.974,33.049,5.233,49.758V486.4c-0.005,4.711-3.822,8.529-8.533,8.533
				H36.587c-2.573,0.022-5.014-1.141-6.617-3.154c-1.641-2.03-2.27-4.696-1.708-7.246c8.411-41.507,12.417-83.786,11.95-126.133
				c0.402-39.071-1.692-78.129-6.267-116.933c-1.284-9.328-2.041-18.72-2.267-28.133c0-47.642,83.125-196.267,128-196.267h243.725
				c3.613-0.006,6.938,1.971,8.659,5.148s1.561,7.042-0.417,10.065c-7.849,10.421-12.389,22.958-13.033,35.988
				c0,31.296,27.15,63.604,51.108,92.112c16.825,20.021,34.225,40.721,34.225,52.954
				C483.586,218.665,481.303,223.684,477.521,227.458z"/>
			<path d="M310.779,116.966c2.188-2.149,3.055-5.307,2.27-8.271c-0.785-2.965-3.1-5.28-6.065-6.065
				c-2.965-0.785-6.122,0.082-8.271,2.27c-14.317,14.316-44.875,14.566-45.175,14.566c-4.713,0.002-8.531,3.825-8.529,8.538
				c0.002,4.713,3.825,8.531,8.538,8.529C255.087,136.533,291.437,136.313,310.779,116.966z"/>
			<path d="M207.055,154.5c-2.021,1.013-3.557,2.788-4.268,4.934c-1.491,4.47,0.923,9.302,5.392,10.796
				c25.92,6.857,52.704,9.88,79.5,8.971c55.834,0,75.108-37.263,75.9-38.85c1.372-2.728,1.182-5.982-0.498-8.531
				c-1.681-2.55-4.596-4.007-7.644-3.822c-3.048,0.185-5.765,1.985-7.124,4.72c-0.15,0.296-15.233,29.417-60.633,29.417
				c-24.964,0.797-49.915-1.93-74.117-8.1C211.417,153.319,209.076,153.487,207.055,154.5z"/>
			<path d="M230.629,188.167c-4.472-1.487-9.303,0.934-10.79,5.406s0.934,9.303,5.406,10.79c23.084,6.473,46.998,9.496,70.967,8.97
				c69.783,0,89.367-17.563,91.366-19.567c3.24-3.255,3.277-8.504,0.083-11.804c-3.223-3.339-8.509-3.532-11.967-0.438
				c-0.166,0.15-17.3,14.742-79.483,14.742C274.076,196.712,251.991,193.985,230.629,188.167z"/>
		</g>
	</g>
</g>
<g>
</g>
<g>
</g>
<g>
</g>
<g>
</g>
<g>
</g>
<g>
</g>
<g>
</g>
<g>
</g>
<g>
</g>
<g>
</g>
<g>
</g>
<g>
</g>
<g>
</g>
<g>
</g>
<g>
</g>
</svg>
